<svg xmlns="http://www.w3.org/2000/svg"
	 width="100%" viewBox="0 0 1024 1024">
<path fill="#ffffff" stroke="none" 
	d="
M547.437256,629.434570 
	C542.959412,634.166077 538.783386,638.700195 534.486694,643.116882 
	C531.872742,645.803772 531.507507,648.587280 533.626099,651.647766 
	C544.699768,667.644409 553.737915,684.618896 558.726074,703.561035 
	C558.869446,704.105164 559.536377,704.511475 560.749817,705.862000 
	C562.995178,695.934204 560.252380,686.367188 563.630249,677.425659 
	C567.181824,668.024292 573.339172,660.773743 580.896240,654.588745 
	C588.183960,648.624268 595.764465,643.019287 603.567749,638.284180 
	C605.501099,639.238342 605.385986,640.549438 605.209351,641.618530 
	C603.217957,653.675659 604.895264,665.878723 603.481934,678.006348 
	C601.490906,695.091370 594.603516,709.227844 581.254395,720.116882 
	C578.028320,722.748352 574.602112,725.134033 571.364319,727.751953 
	C569.296936,729.423462 566.853455,730.979492 565.532349,733.164062 
	C559.702820,742.803833 558.873901,753.941040 557.273315,764.694641 
	C556.182495,772.023438 561.599976,777.330322 565.640442,782.803711 
	C567.258911,784.996277 569.472351,786.790649 571.002563,790.526428 
	C567.698486,789.765808 565.497986,789.250366 563.293335,788.753296 
	C553.818665,786.617554 546.180847,789.724304 540.900574,797.853943 
	C537.817871,802.600037 534.746521,807.353760 531.624878,812.074158 
	C531.390015,812.429382 530.792358,812.544678 530.385071,812.760071 
	C528.722656,811.671143 529.270020,810.120178 529.291870,808.653198 
	C529.401001,801.326904 529.983948,793.956848 529.383789,786.686096 
	C528.855896,780.291443 529.830383,774.675354 532.631348,768.895203 
	C535.553162,762.865723 538.012024,756.458374 537.835754,749.037109 
	C535.092285,749.726257 534.349487,751.623474 533.480835,753.324463 
	C529.549622,761.022644 527.573181,769.290100 527.436829,777.849854 
	C527.136963,796.677307 527.132263,815.510376 527.125000,834.341125 
	C527.122314,841.219849 528.851135,842.153809 534.819031,838.497864 
	C539.860229,835.409607 544.703979,831.999146 549.783508,828.632996 
	C551.013367,831.464966 549.346313,833.035461 548.569519,834.733765 
	C545.313660,841.852356 542.100708,849.000244 538.534729,855.964661 
	C535.100220,862.672546 534.975525,869.588928 535.723694,876.863892 
	C538.817871,906.952209 529.350037,931.955139 505.148071,950.801270 
	C504.144287,951.582825 503.259216,952.759216 501.579224,952.393616 
	C500.134705,950.918396 500.773499,949.000916 500.770477,947.266968 
	C500.743317,931.601807 500.409821,915.924194 500.931030,900.275696 
	C501.243286,890.901367 498.445435,882.930176 493.131042,875.589966 
	C486.780670,866.818909 480.283875,858.153992 473.898804,849.407898 
	C472.960449,848.122620 471.416656,847.127197 471.518799,844.497192 
	C478.384705,847.038574 485.007629,849.491333 491.631805,851.940674 
	C492.881531,852.402771 494.103851,853.008728 495.395142,853.274353 
	C498.343506,853.880676 500.342804,852.875000 500.581177,849.608765 
	C500.875122,845.581177 500.668793,841.735962 498.321655,838.104492 
	C493.711060,830.970947 489.324310,823.689697 484.957947,816.401917 
	C477.391205,803.772522 471.217529,790.475159 467.190582,776.310852 
	C465.042023,768.753540 460.434509,763.903931 453.473267,760.877747 
	C448.673340,758.791260 443.884857,756.678589 438.432129,754.288696 
	C441.114136,751.787231 443.778809,751.312195 446.085571,750.185181 
	C449.523468,748.505432 453.029999,746.928650 456.315460,744.983948 
	C460.431702,742.547424 462.501770,738.969543 462.822479,733.928162 
	C463.468201,723.777832 465.444763,713.803650 468.672241,704.132507 
	C469.633820,701.251160 469.352203,699.413940 467.334351,696.629761 
	C463.264984,691.014832 459.987213,684.691162 457.218414,678.298035 
	C452.058899,666.384949 443.092682,661.145325 430.451874,661.346497 
	C428.151031,661.383118 428.149658,661.296387 425.232605,659.877197 
	C426.486786,656.668701 429.084412,654.582764 431.503448,652.378540 
	C437.965454,646.490234 442.148529,639.807556 440.863983,630.453186 
	C440.074310,624.702759 440.282959,618.819092 439.943665,613.001038 
	C439.822205,610.919006 440.205872,608.384460 437.406586,607.620239 
	C434.694092,606.879578 432.081085,607.220886 429.976471,609.307434 
	C427.930359,611.335876 426.790649,613.966431 425.431702,616.445374 
	C419.052246,628.082947 411.795044,638.856445 400.194672,646.192993 
	C385.728027,655.342346 369.688751,657.620483 353.233612,656.881531 
	C338.004547,656.197571 322.938995,655.042358 308.583862,661.689087 
	C308.181549,661.875427 307.617615,661.712646 307.169189,661.712646 
	C305.993561,660.981079 306.343781,659.929443 306.629822,659.016785 
	C312.612885,639.924377 318.669067,620.813049 330.189209,604.150574 
	C344.222961,583.852478 363.311707,571.911804 388.437500,571.855774 
	C401.544800,571.826538 413.814392,576.058594 424.052460,584.467407 
	C429.982635,589.338013 436.808350,587.028931 443.156586,588.219299 
	C445.317383,588.624451 446.006927,586.051636 444.584503,584.213501 
	C440.512207,578.951172 436.850861,573.300720 431.827057,568.873962 
	C428.575104,566.008545 424.430237,565.324829 420.129669,565.349426 
	C407.322174,565.422607 394.531708,565.850037 381.966125,562.198975 
	C359.017883,555.531006 341.478760,541.726257 328.096252,522.288025 
	C309.719360,495.595276 304.263489,465.601227 305.784119,433.870148 
	C305.813538,433.256683 306.102356,432.655670 306.211273,432.261688 
	C307.172089,431.697357 307.811035,431.962921 308.290833,432.428040 
	C321.210144,444.952148 337.312256,450.109619 354.606293,452.720856 
	C373.852783,455.626892 392.335266,460.678741 408.704590,471.912048 
	C431.095856,487.277832 442.687592,508.360931 443.217102,535.507324 
	C443.324371,541.005432 443.293732,546.506104 443.348694,552.005371 
	C443.365204,553.659790 443.384094,555.348511 445.464813,556.313965 
	C447.749176,553.860474 447.531616,550.723877 447.991241,547.895630 
	C450.288849,533.758301 455.449402,520.543945 461.846375,507.922943 
	C467.127258,497.503998 466.201111,487.771667 461.594391,477.744568 
	C460.149658,474.600037 458.812469,471.406097 457.187805,467.689728 
	C461.518433,467.648590 464.227112,470.019928 467.228882,471.404541 
	C477.835785,476.297089 480.670532,475.567139 486.832703,465.683014 
	C489.540924,461.339020 492.059204,456.876587 494.564087,452.636536 
	C492.889252,450.338776 491.106873,451.087982 489.652679,451.523193 
	C462.201935,459.739044 436.314667,453.205292 410.816467,443.196869 
	C391.670166,435.681671 375.862915,423.362549 361.703278,408.708069 
	C351.618744,398.271149 341.450867,387.889252 328.696808,380.620453 
	C315.432159,373.060669 301.439606,369.106415 286.079285,372.932434 
	C284.948273,373.214172 283.784149,373.418945 281.881683,372.061951 
	C296.087097,337.906097 317.186951,311.570679 356.257812,305.444275 
	C356.417084,304.535187 356.640015,304.087433 356.505890,303.910950 
	C345.354095,289.232117 332.670044,276.217438 315.932159,267.886719 
	C307.858368,263.868256 299.212738,262.388214 290.190308,263.821808 
	C288.736206,264.052826 287.252106,264.561310 285.395172,263.238159 
	C285.852966,257.249603 288.331146,251.626785 290.876038,246.118530 
	C300.348846,225.615067 314.605286,209.703979 335.438660,200.122299 
	C338.909393,198.526062 340.652985,198.797562 342.138641,202.658447 
	C344.680023,209.262985 347.437714,215.891876 353.240173,220.425171 
	C355.194275,219.315277 354.379425,218.073654 354.030273,217.115234 
	C346.438446,196.275146 347.519623,175.262680 352.862518,154.212296 
	C355.927246,142.137695 354.753296,130.797363 347.922119,120.207787 
	C347.403076,119.403214 346.817749,118.499191 347.438080,117.195404 
	C351.359924,116.651566 355.080658,118.568802 359.041931,118.751564 
	C372.005768,119.349716 384.009583,115.314941 396.070435,111.530960 
	C405.603241,108.540146 415.029266,105.531013 425.257721,105.536652 
	C433.966370,105.541451 442.020447,107.782135 450.026581,110.664642 
	C452.125824,111.420441 454.045135,112.063278 456.096893,110.399506 
	C471.299347,98.071724 489.089050,91.233238 507.700287,86.109184 
	C519.287659,82.918930 530.521729,78.864342 539.949341,71.459442 
	C540.666138,71.876244 541.112000,71.975395 541.202332,72.210938 
	C546.293396,85.481102 557.324097,91.503609 569.813538,95.834587 
	C577.522095,98.507690 585.232788,101.197906 592.823120,104.184074 
	C611.156372,111.396774 624.393860,124.208565 633.510315,141.549240 
	C637.288879,148.736435 637.457886,148.686081 645.214050,147.350952 
	C657.707642,145.200363 669.425415,148.425888 680.779968,152.953888 
	C697.852478,159.762070 712.461487,170.550171 726.282166,182.461395 
	C727.001160,183.081100 727.480774,183.978622 728.358704,185.119629 
	C712.244141,197.979126 712.559326,217.331284 708.340454,234.870285 
	C704.827698,249.473892 699.469360,263.113007 689.397583,274.573761 
	C686.251831,278.153381 686.897766,279.501160 691.745728,280.826691 
	C720.143738,288.591278 735.733276,308.664551 744.180115,335.553070 
	C744.364502,336.140198 744.203308,336.835938 744.203308,337.618317 
	C740.159241,338.508453 736.257568,339.208618 732.443420,340.234344 
	C716.303406,344.574921 705.783508,356.010345 696.585388,369.004700 
	C686.485474,383.273102 677.362976,398.307281 664.934143,410.773224 
	C635.700256,440.094543 600.268738,454.548248 558.879883,454.142517 
	C550.218262,454.057617 541.619568,452.699097 533.321533,450.111420 
	C529.241699,448.839172 528.031006,450.402893 528.353577,454.091553 
	C528.930237,460.686035 526.293274,467.280701 528.404785,474.289642 
	C530.574890,467.222015 529.320557,459.989014 531.305359,453.211853 
	C534.513916,453.749939 535.036194,456.106293 536.032715,457.891846 
	C540.742432,466.330475 545.363647,474.809418 551.123779,482.615601 
	C555.180054,488.112732 560.137695,489.958099 566.820801,487.884888 
	C570.697937,486.682159 574.626770,485.259003 578.775635,485.109528 
	C579.780518,487.483032 578.199829,488.879364 577.240295,490.264038 
	C569.973816,500.750092 568.276978,511.566772 573.174805,523.793823 
	C577.410217,534.366943 578.237549,545.775208 578.267944,557.164856 
	C578.273010,559.065430 577.615601,561.173279 579.436462,563.072632 
	C583.226257,560.865295 584.889648,557.613037 584.858643,553.316406 
	C584.783020,542.827759 584.713806,532.332764 586.354919,521.929993 
	C590.301697,496.911346 605.132629,479.832458 626.390747,467.622711 
	C642.096924,458.601715 659.410400,454.432373 677.128601,451.842590 
	C693.176697,449.496979 707.733521,444.078033 719.667908,432.694733 
	C720.111877,432.271240 720.772461,432.074890 721.549744,431.655151 
	C723.035095,434.055054 723.111755,436.529236 723.107178,438.967987 
	C723.064514,461.672058 720.075745,483.937012 710.198181,504.567261 
	C695.481384,535.304382 672.950867,557.006348 638.274902,563.829285 
	C628.518555,565.748901 618.702209,565.454407 608.895447,565.274231 
	C601.662170,565.141296 596.008179,567.581482 591.507202,573.253418 
	C588.302063,577.292419 584.661865,580.983093 581.314575,584.913452 
	C579.143372,587.462891 576.870667,589.284241 572.979919,586.772217 
	C572.327454,591.018372 574.777588,591.026978 577.019104,590.679565 
	C581.123108,590.043335 585.197021,588.368774 589.255310,588.454834 
	C598.117737,588.642944 604.849182,584.378540 612.060486,580.066772 
	C637.857239,564.642395 667.544983,572.122070 688.020508,591.963684 
	C699.544067,603.130493 706.624023,617.040527 712.153442,631.823242 
	C715.751709,641.443237 718.998169,651.194885 722.273132,660.519836 
	C720.704773,662.255493 719.495605,661.722839 718.520264,661.230347 
	C705.679810,654.746704 691.934937,655.648315 678.321777,656.653564 
	C643.855469,659.198608 619.813477,648.618469 603.986206,617.904175 
	C597.815369,605.929077 595.964294,605.223267 582.727478,608.780273 
	C569.226562,612.408325 557.790405,619.675903 547.437256,629.434570 
M629.561218,267.112488 
	C616.329468,276.772064 601.904846,284.418701 587.431274,291.965546 
	C570.352112,300.870941 554.171631,310.971344 541.263733,325.592682 
	C532.565735,335.445221 525.813660,346.444366 521.728882,358.974518 
	C521.096191,360.915283 520.025452,363.560791 522.510193,364.835327 
	C525.045715,366.135864 525.795959,363.288116 526.917053,361.860168 
	C538.822388,346.697052 554.010559,336.488953 572.572998,331.251678 
	C578.808960,329.492249 585.291199,328.510986 591.179504,325.621918 
	C597.662659,322.440948 603.361938,318.313782 604.673340,310.676971 
	C605.402527,306.430145 607.698547,305.444672 611.283447,305.943787 
	C619.852539,307.136810 628.160645,305.332123 636.532532,304.020996 
	C642.377258,303.105652 648.294800,301.176331 653.904175,305.238983 
	C655.727234,306.559326 657.427124,305.368103 658.468018,303.594971 
	C662.334473,297.008362 664.733765,290.274170 660.391113,282.903748 
	C659.817627,281.930328 659.090942,280.906891 660.061829,279.177734 
	C661.738098,278.712677 663.819763,278.223602 665.843323,277.558258 
	C674.148987,274.827576 682.213684,271.516663 687.603516,264.204132 
	C695.741150,253.163345 700.450256,240.685196 702.836304,227.175720 
	C705.061279,214.578186 707.432129,201.989502 713.763733,190.542374 
	C716.901794,184.868988 716.302673,183.286728 711.066467,179.199921 
	C708.442749,177.152145 705.761169,175.171005 703.023376,173.278885 
	C699.050476,170.533142 695.064331,167.765671 691.092590,173.469772 
	C690.560120,174.234482 688.997314,174.339371 687.880249,174.628601 
	C684.707214,175.450165 681.228455,176.845398 680.114685,179.642670 
	C677.488708,186.237564 671.534119,189.977325 667.803955,195.560974 
	C665.739807,198.650742 665.032349,201.764160 665.254578,205.374557 
	C665.447998,208.516785 665.293701,211.663803 664.692749,214.817703 
	C660.468140,236.990189 648.040894,253.650726 629.561218,267.112488 
M555.203613,360.705475 
	C551.931641,363.281464 548.652832,365.848785 545.389038,368.435150 
	C536.774170,375.261963 535.214172,382.821533 538.332947,393.234375 
	C541.330627,403.242645 546.181213,412.222931 550.812134,421.426453 
	C554.221558,428.202362 559.731812,431.282104 567.377075,430.261658 
	C577.222961,428.947510 585.116150,423.536926 592.923645,418.273804 
	C613.365173,404.493988 626.731262,385.096527 635.579773,362.373413 
	C639.394897,352.575989 642.294495,342.502899 644.102295,332.137909 
	C645.446594,324.430573 641.943604,321.379272 634.888977,324.057892 
	C623.219543,328.488800 611.535400,332.882874 599.911560,337.430847 
	C584.406494,343.497375 568.684814,349.178223 555.203613,360.705475 
M520.086182,257.425079 
	C529.658264,253.347214 538.639587,247.530060 549.949097,246.609009 
	C549.644226,248.410172 549.590027,249.398254 549.303528,250.313583 
	C547.587402,255.796509 547.084839,261.008514 551.324402,265.807831 
	C553.123413,267.844360 552.701782,270.410065 551.713013,272.910187 
	C550.708557,275.449982 550.763977,278.249634 553.641113,279.317017 
	C558.941406,281.283447 564.490295,283.176727 570.102356,280.519745 
	C579.728333,275.962402 589.262146,271.209564 598.811096,266.490997 
	C600.754822,265.530518 602.702393,264.427582 603.498657,262.216797 
	C608.778381,247.557785 610.500122,232.848099 603.234375,218.333481 
	C601.778259,215.424652 601.679077,213.216522 603.255615,210.470276 
	C605.571960,206.435257 607.832764,202.327728 609.643311,198.050522 
	C615.549011,184.099792 612.537842,168.498657 602.088562,158.406784 
	C600.444824,156.819290 598.903870,154.535889 596.044250,155.105682 
	C595.846375,155.726227 595.625366,156.054733 595.673584,156.337402 
	C595.812317,157.152634 596.031006,157.957962 596.268799,158.752060 
	C600.933838,174.331161 598.487671,188.754395 588.907349,201.836212 
	C579.745850,214.346176 567.345154,222.973984 553.842041,230.155380 
	C544.437439,235.157059 534.740417,239.625214 525.999451,245.815216 
	C522.853394,248.043121 519.841919,250.423889 517.486755,253.467957 
	C515.728455,255.740494 515.870850,257.551758 520.086182,257.425079 
M458.016479,151.516815 
	C446.641815,163.597870 442.946106,178.369110 445.592896,194.096375 
	C447.893066,207.764084 452.765106,220.935593 465.003357,229.492538 
	C470.046204,233.018463 475.241058,236.430054 480.711487,239.216995 
	C488.630798,243.251556 497.199982,243.623260 505.157776,239.800583 
	C509.358795,237.782547 513.007935,234.073380 516.108459,230.445908 
	C519.862000,226.054306 524.262451,223.349503 529.679688,221.657822 
	C536.335327,219.579407 543.051941,217.525177 548.039856,212.056931 
	C554.079468,205.435699 556.172363,193.696045 552.536560,185.394760 
	C549.290710,177.983932 540.979065,172.999832 532.315552,173.277374 
	C530.488953,173.335876 528.397888,173.136780 527.552185,175.198456 
	C526.610046,177.495193 528.741577,178.343597 530.074463,179.498596 
	C536.381836,184.964066 537.793457,191.967026 534.050659,199.239075 
	C529.790466,207.516403 518.757019,212.163681 507.262421,210.838715 
	C496.648254,209.615250 487.586945,204.972504 479.063293,198.888977 
	C472.515076,194.215347 468.312073,187.948639 466.700867,180.163559 
	C463.762573,165.966370 469.705872,155.246857 480.494476,146.595200 
	C482.154510,145.263992 484.566650,143.999725 483.449005,141.453552 
	C482.229889,138.676239 479.593567,139.453003 477.322296,140.101181 
	C470.138000,142.151459 463.833527,145.740692 458.016479,151.516815 
M405.604401,245.844315 
	C408.620544,252.579712 412.614136,258.733704 417.201752,264.463745 
	C421.848999,270.268188 427.953278,272.826538 435.344238,270.881805 
	C439.981293,269.661713 444.663147,269.475616 449.222046,270.317108 
	C461.916595,272.660309 474.830444,273.352112 487.176758,278.221405 
	C501.118408,283.719879 514.580750,289.476379 525.119690,300.530182 
	C525.852600,301.298920 526.432739,302.536438 528.294312,302.021912 
	C526.096130,298.115295 525.373962,293.031738 521.215698,291.036346 
	C517.630005,289.315704 515.425720,286.685791 513.256348,283.829193 
	C508.629578,277.736755 502.486267,273.438751 496.173859,269.465881 
	C483.497620,261.487793 469.796631,255.216614 457.653290,246.322693 
	C437.654297,231.675217 423.512848,213.312820 420.063629,188.002075 
	C419.367859,182.896576 418.658661,177.764938 417.460358,172.764023 
	C416.328156,168.038666 413.824463,167.435791 410.545502,170.856720 
	C403.370667,178.342224 399.242737,188.001785 395.853882,197.231842 
	C393.037018,204.903885 393.338379,214.526703 396.880646,222.729248 
	C400.058258,230.087418 402.144562,237.810272 405.604401,245.844315 
M437.138275,417.460632 
	C445.500885,422.240601 454.692963,424.633392 464.084167,425.848907 
	C472.273346,426.908905 479.143219,421.881866 479.852631,414.727539 
	C480.385651,409.352448 481.799927,404.336121 483.528870,399.280273 
	C486.730957,389.916565 484.682800,380.663818 478.114746,374.213867 
	C470.777588,367.008667 461.945190,360.974335 450.583313,360.717102 
	C446.344910,360.621124 442.331207,361.900391 438.236481,361.843903 
	C427.871613,361.700928 417.555695,376.631439 419.815857,386.940552 
	C422.313782,398.334045 428.448608,408.400665 437.138275,417.460632 
M416.814911,285.718964 
	C410.069916,282.878174 403.366913,279.951813 397.106750,276.115356 
	C394.421295,274.469666 392.806488,275.416046 391.751587,278.188843 
	C390.875305,280.492218 391.721436,282.308167 392.768707,284.305573 
	C395.286713,289.108185 393.085358,293.320068 387.692566,294.169128 
	C384.903412,294.608276 382.075623,294.796936 379.270905,295.144287 
	C377.714478,295.337006 375.394196,294.902313 375.624390,297.375885 
	C375.850739,299.808136 378.192352,299.838928 379.955841,299.557587 
	C383.559601,298.982727 387.128876,298.146118 390.673828,297.262756 
	C393.224060,296.627258 394.685547,296.878845 395.076813,300.028931 
	C396.584625,312.170105 401.362885,317.223328 413.226837,319.557190 
	C420.570679,321.001862 427.961182,322.219818 435.280914,323.774231 
	C456.251678,328.227539 474.287994,337.813934 488.360229,354.326172 
	C490.204926,356.490723 491.814575,359.140747 494.919220,360.059448 
	C496.940674,357.147766 495.467377,354.679108 494.549408,352.294830 
	C488.400055,336.322754 478.024292,323.629089 464.625244,313.106476 
	C450.203186,301.780518 433.488892,294.572144 416.814911,285.718964 
M499.547760,451.799713 
	C499.070251,451.071625 499.127075,449.814545 498.335175,449.880890 
	C498.335175,456.443756 497.783142,462.964630 498.455597,469.356689 
	C499.676697,480.964203 496.517334,491.040649 490.763245,501.052612 
	C479.459900,520.720032 469.591797,541.126404 466.864899,564.056702 
	C466.208618,569.575195 463.756866,575.749023 468.404114,580.736023 
	C476.571014,589.499878 484.975159,598.043457 493.332825,606.627869 
	C494.686371,608.018188 496.169678,610.002563 498.378265,609.093445 
	C500.648926,608.158813 500.104034,605.666077 500.054901,603.764160 
	C499.753937,592.121460 499.155945,580.484070 499.006775,568.840393 
	C498.841003,555.903137 493.012482,546.319397 482.548126,539.176147 
	C481.116455,538.198792 479.071320,537.743591 478.757446,535.468079 
	C479.606323,534.017639 481.192688,533.923218 482.562469,533.416565 
	C495.879181,528.491089 499.143829,523.577576 499.770538,509.278442 
	C500.170959,500.142883 500.439056,491.032379 500.386658,481.882233 
	C500.330475,472.077881 501.223480,462.267273 499.547760,451.799713 
M640.129761,394.586212 
	C638.658325,397.195862 637.165894,399.794006 635.723755,402.419708 
	C634.922791,403.877869 633.903687,405.438019 635.480652,406.956940 
	C636.846008,408.271973 638.688171,408.213348 640.172424,407.461273 
	C645.043823,404.992981 650.422302,403.150665 653.777588,398.476196 
	C656.893311,394.135315 660.873718,390.677460 665.758484,389.009766 
	C676.383850,385.382233 682.618774,377.334229 688.573914,368.585724 
	C695.427429,358.517487 702.987915,348.989838 712.978394,341.724579 
	C715.200378,340.108734 716.842529,338.071075 717.595886,335.391174 
	C719.299011,329.333252 717.106018,326.914734 710.893860,327.805084 
	C694.582397,330.142975 682.286621,339.699982 670.442505,350.124268 
	C656.728821,362.194031 648.883118,378.253967 640.129761,394.586212 
M538.305847,568.808472 
	C528.789795,577.980347 523.020813,605.406921 529.392700,612.638062 
	C534.484558,609.216614 537.534851,603.986938 540.889771,599.128357 
	C551.970215,583.082092 558.662231,565.942444 555.755554,545.758484 
	C552.518555,523.281311 541.325989,504.772858 528.579468,486.076660 
	C528.250916,487.351837 528.071289,487.808258 528.021057,488.278442 
	C526.206787,505.249023 527.718140,522.207825 528.599243,539.133667 
	C529.142212,549.562988 533.721863,554.052063 543.835266,557.003967 
	C545.724487,557.555420 548.311646,557.159180 549.365417,560.284241 
	C545.900391,562.947510 542.378235,565.654663 538.305847,568.808472 
M519.739929,144.186142 
	C517.352295,145.364059 514.860962,146.371490 512.595154,147.749741 
	C503.304199,153.401321 495.296783,160.263336 492.043213,171.191574 
	C489.852875,178.548615 492.751648,187.400970 498.029114,189.849564 
	C499.754272,187.957062 499.572296,185.566986 499.648773,183.278137 
	C499.895569,175.890610 502.754639,169.739960 508.287292,164.851395 
	C516.571411,157.531677 526.688477,155.926895 537.183960,155.976715 
	C553.491760,156.054108 567.858521,169.516052 569.390015,185.692551 
	C569.642517,188.358582 569.249390,191.347641 571.386841,193.449158 
	C573.249512,193.517059 573.941650,192.370071 574.728516,191.274002 
	C587.204834,173.895844 579.844910,149.678146 559.573303,143.006271 
	C546.616394,138.741837 533.379944,138.825729 519.739929,144.186142 
M478.625000,672.640076 
	C480.772461,675.855103 482.026764,673.744507 483.314514,671.852051 
	C487.704712,665.400085 491.952881,658.844910 496.538788,652.535217 
	C499.060333,649.065857 498.718842,646.250427 496.014648,643.221741 
	C488.596680,634.913757 481.199066,626.567139 471.936096,620.231812 
	C469.207672,618.365784 466.310822,614.254028 463.017181,616.299988 
	C459.384460,618.556519 461.308167,623.315796 461.759735,626.966125 
	C463.774384,643.252502 470.856659,657.719849 478.625000,672.640076 
M486.734955,730.152161 
	C483.463867,751.618530 491.228607,788.449951 500.754883,795.536011 
	C500.719543,782.547180 501.281311,769.753662 499.096222,757.061829 
	C497.621613,748.496948 495.427246,740.140869 491.033752,732.564026 
	C490.258209,731.226624 490.169342,728.157471 486.734955,730.152161 
M537.089355,740.377930 
	C538.903564,739.490479 539.859802,738.005920 539.953064,736.020691 
	C540.727844,719.525146 536.965149,704.020630 529.666199,689.303345 
	C529.475403,688.918701 528.960205,688.694885 528.553833,688.361206 
	C527.479858,688.987915 527.233215,689.950989 527.232056,690.938965 
	C527.215271,705.588623 527.086060,720.240295 527.303955,734.886780 
	C527.379761,739.982300 530.946533,741.982056 537.089355,740.377930 
M640.438171,221.881500 
	C642.384399,213.598282 644.350952,205.316986 642.985962,196.607605 
	C642.085754,199.270279 641.494995,201.623123 638.004211,202.048111 
	C628.067871,203.257858 624.858948,207.763123 625.647766,217.739914 
	C626.194763,224.659409 628.527893,231.446075 627.235107,238.522476 
	C627.034058,239.622833 627.408569,240.876984 629.491028,241.401459 
	C634.917969,236.423584 638.016418,229.817657 640.438171,221.881500 
M379.506195,231.802704 
	C383.588562,229.117569 382.120758,225.758926 380.218140,222.796783 
	C378.666931,220.381714 372.000854,219.515656 370.202576,221.045700 
	C367.481934,223.360489 368.239777,227.629135 371.798035,231.921936 
	C374.205139,234.825989 376.398315,235.466125 379.506195,231.802704 
M496.099213,697.753845 
	C493.183838,704.272461 493.460022,705.193909 499.458160,708.328491 
	C501.752686,705.052002 500.473755,701.315796 500.766083,697.826904 
	C500.862122,696.681274 500.648926,695.307678 499.309113,694.949829 
	C497.639130,694.503845 497.084473,695.990356 496.099213,697.753845 
M640.554565,183.217972 
	C641.043030,185.557434 641.531494,187.896896 642.020020,190.236343 
	C642.594788,185.466309 641.884888,181.042664 639.750854,176.462296 
	C638.757385,178.930054 639.758606,180.674698 640.554565,183.217972 
M575.462402,582.094727 
	C577.699158,580.034241 577.495605,577.343384 577.794983,573.853149 
	C574.914856,576.458923 575.298523,579.132568 575.462402,582.094727 
z"/>
<path fill="#ffffff" stroke="none" 
	d="
M651.670288,282.322327 
	C651.494873,283.724579 650.810913,284.446564 649.890564,284.905182 
	C645.801331,286.942932 643.660400,289.538727 647.418152,293.667999 
	C640.955322,299.146149 620.941284,302.612579 615.984131,299.231628 
	C616.302124,297.343903 617.998962,297.168884 619.335754,296.752808 
	C622.236023,295.850067 623.881165,294.402588 623.413330,290.982635 
	C623.002136,287.975861 625.199829,286.129181 627.352844,284.474701 
	C636.892883,277.143494 645.475708,268.845337 653.077271,259.502899 
	C655.481628,256.547852 658.648499,254.963684 662.203674,257.699432 
	C668.232544,262.338623 674.466370,261.969635 680.957886,258.975922 
	C682.418579,258.302277 683.755554,257.097748 686.390320,257.895081 
	C683.227783,265.239044 676.966125,268.703400 670.575012,272.019226 
	C664.190613,275.331512 656.835632,275.812042 650.106201,278.823090 
	C650.681580,279.998016 651.171509,280.998535 651.670288,282.322327 
z"/>
<path fill="#ffffff" stroke="none" 
	d="
M699.702881,185.109192 
	C697.305054,183.623581 697.811890,182.016068 699.528748,180.879730 
	C700.775146,180.054810 702.236694,180.824982 702.693909,182.157593 
	C703.486206,184.466431 701.650391,184.805298 699.702881,185.109192 
z"/>
<path fill="#ffffff" stroke="none" 
	d="
M405.471985,299.753540 
	C410.878693,301.407776 416.027802,302.655090 420.799774,304.982452 
	C421.149536,305.153046 421.275452,305.782532 421.748322,306.638275 
	C417.664642,308.331451 413.826141,310.558960 409.698151,311.459930 
	C405.359558,312.406860 400.415680,304.932465 402.231354,300.875122 
	C402.823730,299.551422 403.857178,299.375671 405.471985,299.753540 
z"/>
<path fill="#ffffff" stroke="none" 
	d="
M457.567871,325.310791 
	C451.411316,324.786346 446.522461,321.596405 440.010651,319.235718 
	C447.829254,316.773102 455.815399,319.882904 457.567871,325.310791 
z"/>
<path fill="#ffffff" stroke="none" 
	d="
M426.101288,315.409180 
	C424.989532,314.779968 423.879150,314.500244 424.310699,312.816803 
	C427.294800,312.721344 430.189392,312.741119 432.333130,315.808990 
	C430.018616,317.188293 428.245911,315.861511 426.101288,315.409180 
z"/>
</svg>